<svg width="24" height="24" viewBox="0 0 24 24" fill="none" xmlns="http://www.w3.org/2000/svg">
<path d="M5.55 17.625C6.6 16.9583 7.6375 16.4542 8.6625 16.1125C9.6875 15.7708 10.8 15.6 12 15.6C13.2 15.6 14.3167 15.7708 15.35 16.1125C16.3833 16.4542 17.425 16.9583 18.475 17.625C19.2083 16.725 19.7292 15.8167 20.0375 14.9C20.3458 13.9833 20.5 13.0167 20.5 12C20.5 9.58333 19.6875 7.5625 18.0625 5.9375C16.4375 4.3125 14.4167 3.5 12 3.5C9.58333 3.5 7.5625 4.3125 5.9375 5.9375C4.3125 7.5625 3.5 9.58333 3.5 12C3.5 13.0167 3.65833 13.9833 3.975 14.9C4.29167 15.8167 4.81667 16.725 5.55 17.625ZM11.9953 12.75C11.0318 12.75 10.2208 12.4193 9.5625 11.7578C8.90417 11.0964 8.575 10.2839 8.575 9.32035C8.575 8.35678 8.90572 7.54583 9.56715 6.8875C10.2286 6.22917 11.0411 5.9 12.0047 5.9C12.9682 5.9 13.7792 6.23072 14.4375 6.89215C15.0958 7.55358 15.425 8.36608 15.425 9.32965C15.425 10.2932 15.0943 11.1042 14.4329 11.7625C13.7714 12.4208 12.9589 12.75 11.9953 12.75ZM11.9899 22C10.6041 22 9.30182 21.7375 8.083 21.2125C6.86418 20.6875 5.80398 19.9708 4.90237 19.0625C4.00079 18.1542 3.29167 17.093 2.775 15.879C2.25833 14.665 2 13.3678 2 11.9875C2 10.6072 2.2625 9.31003 2.7875 8.09602C3.3125 6.88201 4.02917 5.825 4.9375 4.925C5.84583 4.025 6.90701 3.3125 8.12103 2.7875C9.33503 2.2625 10.6322 2 12.0125 2C13.3928 2 14.69 2.2625 15.904 2.7875C17.118 3.3125 18.175 4.025 19.075 4.925C19.975 5.825 20.6875 6.88333 21.2125 8.1C21.7375 9.31667 22 10.6145 22 11.9934C22 13.3723 21.7375 14.6681 21.2125 15.8809C20.6875 17.0936 19.975 18.1542 19.075 19.0625C18.175 19.9708 17.1156 20.6875 15.8968 21.2125C14.678 21.7375 13.3757 22 11.9899 22Z" fill="#1D2926"/>
</svg>
