<svg width="24" height="24" viewBox="0 0 24 24" fill="none" xmlns="http://www.w3.org/2000/svg">
<path d="M9.7 22L9.2 18.85C8.88333 18.7333 8.55 18.575 8.2 18.375C7.85 18.175 7.54167 17.9667 7.275 17.75L4.325 19.1L2 15L4.7 13.025C4.66667 12.875 4.64583 12.7042 4.6375 12.5125C4.62917 12.3208 4.625 12.15 4.625 12C4.625 11.85 4.62917 11.6792 4.6375 11.4875C4.64583 11.2958 4.66667 11.125 4.7 10.975L2 9L4.325 4.9L7.275 6.25C7.54167 6.03333 7.85 5.825 8.2 5.625C8.55 5.425 8.88333 5.275 9.2 5.175L9.7 2H14.3L14.8 5.15C15.1167 5.26667 15.4542 5.42083 15.8125 5.6125C16.1708 5.80417 16.475 6.01667 16.725 6.25L19.675 4.9L22 9L19.3 10.925C19.3333 11.0917 19.3542 11.2708 19.3625 11.4625C19.3708 11.6542 19.375 11.8333 19.375 12C19.375 12.1667 19.3708 12.3417 19.3625 12.525C19.3542 12.7083 19.3333 12.8833 19.3 13.05L22 15L19.675 19.1L16.725 17.75C16.4583 17.9667 16.1542 18.1792 15.8125 18.3875C15.4708 18.5958 15.1333 18.75 14.8 18.85L14.3 22H9.7ZM12 15.25C12.9 15.25 13.6667 14.9333 14.3 14.3C14.9333 13.6667 15.25 12.9 15.25 12C15.25 11.1 14.9333 10.3333 14.3 9.7C13.6667 9.06667 12.9 8.75 12 8.75C11.1 8.75 10.3333 9.06667 9.7 9.7C9.06667 10.3333 8.75 11.1 8.75 12C8.75 12.9 9.06667 13.6667 9.7 14.3C10.3333 14.9333 11.1 15.25 12 15.25Z" fill="#1D2926"/>
</svg>
