<svg width="23" height="23" viewBox="0 0 23 23" fill="none" xmlns="http://www.w3.org/2000/svg">
<path d="M4.5 18.2083C4.1 18.2083 3.75 18.0645 3.45 17.777C3.15 17.4895 3 17.1541 3 16.7708V3.35413C3 2.97079 3.15 2.63538 3.45 2.34788C3.75 2.06038 4.1 1.91663 4.5 1.91663H18.5C18.9 1.91663 19.25 2.06038 19.55 2.34788C19.85 2.63538 20 2.97079 20 3.35413V16.7708C20 17.1541 19.85 17.4895 19.55 17.777C19.25 18.0645 18.9 18.2083 18.5 18.2083H4.5ZM4.5 4.79163H18.5V3.35413H4.5V4.79163ZM1.5 21.0833C1.1 21.0833 0.75 20.9395 0.45 20.652C0.15 20.3645 0 20.0291 0 19.6458V4.79163H1.5V19.6458H17V21.0833H1.5Z" fill="#1D2926"/>
</svg>
